<svg xmlns="http://www.w3.org/2000/svg" viewBox="0 0 1600 1000" width="1600" height="1000">
<defs>
<radialGradient id="g1" cx="18%" cy="20%" r="60%"><stop offset="0" stop-color="#2563EB" stop-opacity=".75"/><stop offset="1" stop-color="#2563EB" stop-opacity="0"/></radialGradient>
<radialGradient id="g2" cx="85%" cy="85%" r="65%"><stop offset="0" stop-color="#22D3EE" stop-opacity=".6"/><stop offset="1" stop-color="#22D3EE" stop-opacity="0"/></radialGradient>
<radialGradient id="g3" cx="75%" cy="10%" r="45%"><stop offset="0" stop-color="#FD3A25" stop-opacity=".55"/><stop offset="1" stop-color="#FD3A25" stop-opacity="0"/></radialGradient>
<pattern id="grid" width="64" height="64" patternUnits="userSpaceOnUse"><path d="M64 0H0V64" fill="none" stroke="#fff" stroke-opacity=".06" stroke-width="1"/></pattern>
<linearGradient id="card" x1="0" y1="0" x2="1" y2="1"><stop offset="0" stop-color="#fff" stop-opacity=".16"/><stop offset="1" stop-color="#fff" stop-opacity=".04"/></linearGradient>
<linearGradient id="acc" x1="0" y1="0" x2="1" y2="0"><stop offset="0" stop-color="#2563EB"/><stop offset="1" stop-color="#22D3EE"/></linearGradient>
</defs>
<rect width="1600" height="1000" fill="#0B0B0F"/>
<rect width="1600" height="1000" fill="url(#g1)"/><rect width="1600" height="1000" fill="url(#g2)"/><rect width="1600" height="1000" fill="url(#g3)"/>
<rect width="1600" height="1000" fill="url(#grid)"/>
<rect x="240" y="150" width="1120" height="700" rx="28" fill="url(#card)" stroke="#fff" stroke-opacity=".22"/><rect x="300" y="210" width="700" height="40" rx="20.0" fill="#fff" fill-opacity="0.85"/><rect x="300" y="275" width="1000" height="10" rx="5.0" fill="#fff" fill-opacity="0.25"/><rect x="300" y="320" width="300" height="170" rx="18" fill="url(#acc)" fill-opacity="0.8"/><rect x="300" y="520" width="300" height="12" rx="6.0" fill="#fff" fill-opacity="0.35"/><rect x="300" y="552" width="250" height="12" rx="6.0" fill="#fff" fill-opacity="0.35"/><rect x="300" y="584" width="200" height="12" rx="6.0" fill="#fff" fill-opacity="0.35"/><rect x="300" y="616" width="300" height="12" rx="6.0" fill="#fff" fill-opacity="0.35"/><rect x="300" y="648" width="250" height="12" rx="6.0" fill="#fff" fill-opacity="0.35"/><rect x="300" y="680" width="200" height="12" rx="6.0" fill="#fff" fill-opacity="0.35"/><rect x="300" y="712" width="300" height="12" rx="6.0" fill="#fff" fill-opacity="0.35"/><rect x="300" y="744" width="250" height="12" rx="6.0" fill="#fff" fill-opacity="0.35"/><rect x="650" y="320" width="300" height="170" rx="18" fill="url(#acc)" fill-opacity="0.6000000000000001"/><rect x="650" y="520" width="300" height="12" rx="6.0" fill="#fff" fill-opacity="0.35"/><rect x="650" y="552" width="250" height="12" rx="6.0" fill="#fff" fill-opacity="0.35"/><rect x="650" y="584" width="200" height="12" rx="6.0" fill="#fff" fill-opacity="0.35"/><rect x="650" y="616" width="300" height="12" rx="6.0" fill="#fff" fill-opacity="0.35"/><rect x="650" y="648" width="250" height="12" rx="6.0" fill="#fff" fill-opacity="0.35"/><rect x="650" y="680" width="200" height="12" rx="6.0" fill="#fff" fill-opacity="0.35"/><rect x="650" y="712" width="300" height="12" rx="6.0" fill="#fff" fill-opacity="0.35"/><rect x="650" y="744" width="250" height="12" rx="6.0" fill="#fff" fill-opacity="0.35"/><rect x="1000" y="320" width="300" height="170" rx="18" fill="url(#acc)" fill-opacity="0.4"/><rect x="1000" y="520" width="300" height="12" rx="6.0" fill="#fff" fill-opacity="0.35"/><rect x="1000" y="552" width="250" height="12" rx="6.0" fill="#fff" fill-opacity="0.35"/><rect x="1000" y="584" width="200" height="12" rx="6.0" fill="#fff" fill-opacity="0.35"/><rect x="1000" y="616" width="300" height="12" rx="6.0" fill="#fff" fill-opacity="0.35"/><rect x="1000" y="648" width="250" height="12" rx="6.0" fill="#fff" fill-opacity="0.35"/><rect x="1000" y="680" width="200" height="12" rx="6.0" fill="#fff" fill-opacity="0.35"/><rect x="1000" y="712" width="300" height="12" rx="6.0" fill="#fff" fill-opacity="0.35"/><rect x="1000" y="744" width="250" height="12" rx="6.0" fill="#fff" fill-opacity="0.35"/>
<text x="1530" y="940" text-anchor="end" font-family="Urbanist,Arial,sans-serif" font-size="34" font-weight="700" fill="#fff" fill-opacity=".55" letter-spacing="4">YZ</text>
</svg>