<svg xmlns="http://www.w3.org/2000/svg" viewBox="0 0 746 437" width="746" height="437"><defs><radialGradient id="gl" cx="50%" cy="100%" r="70%"><stop offset="0" stop-color="#FD3A25" stop-opacity=".5"/><stop offset="1" stop-color="#FD3A25" stop-opacity="0"/></radialGradient></defs><rect width="746" height="437" fill="url(#gl)"/><g fill="none" stroke="#fff" stroke-opacity=".28" stroke-width="1.5"><circle cx="373" cy="470" r="360"/><ellipse cx="373" cy="470" rx="60" ry="360"/><ellipse cx="373" cy="470" rx="120" ry="360"/><ellipse cx="373" cy="470" rx="180" ry="360"/><ellipse cx="373" cy="470" rx="240" ry="360"/><ellipse cx="373" cy="470" rx="300" ry="360"/><ellipse cx="373" cy="410" rx="355" ry="43"/><ellipse cx="373" cy="350" rx="339" ry="41"/><ellipse cx="373" cy="290" rx="312" ry="37"/><ellipse cx="373" cy="230" rx="268" ry="32"/><ellipse cx="373" cy="170" rx="199" ry="24"/></g><circle cx="357" cy="417" r="2" fill="#fff" fill-opacity="0.26"/><circle cx="388" cy="367" r="2" fill="#fff" fill-opacity="0.37"/><circle cx="383" cy="371" r="2" fill="#fff" fill-opacity="0.70"/><circle cx="161" cy="205" r="2" fill="#fff" fill-opacity="0.71"/><circle cx="593" cy="284" r="2" fill="#fff" fill-opacity="0.34"/><circle cx="198" cy="211" r="3" fill="#fff" fill-opacity="0.30"/><circle cx="444" cy="239" r="2" fill="#fff" fill-opacity="0.35"/><circle cx="667" cy="365" r="3" fill="#fff" fill-opacity="0.25"/><circle cx="232" cy="259" r="3" fill="#fff" fill-opacity="0.72"/><circle cx="377" cy="321" r="3" fill="#fff" fill-opacity="0.49"/><circle cx="283" cy="407" r="2" fill="#fff" fill-opacity="0.29"/><circle cx="335" cy="113" r="4" fill="#fff" fill-opacity="0.64"/><circle cx="168" cy="340" r="2" fill="#fff" fill-opacity="0.48"/><circle cx="203" cy="318" r="3" fill="#fff" fill-opacity="0.35"/><circle cx="335" cy="262" r="2" fill="#fff" fill-opacity="0.75"/><circle cx="182" cy="272" r="2" fill="#fff" fill-opacity="0.32"/><circle cx="472" cy="435" r="2" fill="#fff" fill-opacity="0.27"/><circle cx="544" cy="196" r="3" fill="#fff" fill-opacity="0.65"/><circle cx="178" cy="182" r="4" fill="#fff" fill-opacity="0.72"/><circle cx="585" cy="347" r="2" fill="#fff" fill-opacity="0.41"/><circle cx="251" cy="367" r="2" fill="#fff" fill-opacity="0.39"/><circle cx="389" cy="415" r="2" fill="#fff" fill-opacity="0.45"/><circle cx="356" cy="340" r="3" fill="#fff" fill-opacity="0.80"/><circle cx="405" cy="315" r="2" fill="#fff" fill-opacity="0.48"/><circle cx="399" cy="423" r="2" fill="#fff" fill-opacity="0.55"/><circle cx="400" cy="357" r="2" fill="#fff" fill-opacity="0.32"/><circle cx="396" cy="192" r="4" fill="#fff" fill-opacity="0.61"/><circle cx="319" cy="422" r="4" fill="#fff" fill-opacity="0.48"/><circle cx="227" cy="431" r="2" fill="#fff" fill-opacity="0.61"/><circle cx="357" cy="394" r="2" fill="#fff" fill-opacity="0.27"/><circle cx="317" cy="403" r="2" fill="#fff" fill-opacity="0.67"/><circle cx="351" cy="378" r="3" fill="#fff" fill-opacity="0.28"/><circle cx="563" cy="398" r="4" fill="#fff" fill-opacity="0.78"/><circle cx="504" cy="185" r="2" fill="#fff" fill-opacity="0.52"/><circle cx="655" cy="311" r="2" fill="#fff" fill-opacity="0.44"/><circle cx="497" cy="210" r="3" fill="#fff" fill-opacity="0.70"/><circle cx="392" cy="235" r="3" fill="#fff" fill-opacity="0.44"/><circle cx="319" cy="300" r="3" fill="#fff" fill-opacity="0.78"/><circle cx="606" cy="411" r="2" fill="#fff" fill-opacity="0.73"/><circle cx="458" cy="326" r="4" fill="#fff" fill-opacity="0.66"/><circle cx="46" cy="415" r="2" fill="#fff" fill-opacity="0.59"/><circle cx="283" cy="360" r="4" fill="#fff" fill-opacity="0.73"/><circle cx="418" cy="157" r="2" fill="#fff" fill-opacity="0.34"/><circle cx="462" cy="189" r="4" fill="#fff" fill-opacity="0.75"/><circle cx="394" cy="435" r="3" fill="#fff" fill-opacity="0.58"/><circle cx="262" cy="402" r="2" fill="#fff" fill-opacity="0.41"/><circle cx="530" cy="426" r="2" fill="#fff" fill-opacity="0.68"/><circle cx="330" cy="398" r="4" fill="#fff" fill-opacity="0.72"/><circle cx="638" cy="359" r="3" fill="#fff" fill-opacity="0.53"/><circle cx="316" cy="167" r="4" fill="#fff" fill-opacity="0.29"/><circle cx="435" cy="437" r="3" fill="#fff" fill-opacity="0.76"/><circle cx="370" cy="428" r="2" fill="#fff" fill-opacity="0.45"/><circle cx="166" cy="323" r="3" fill="#fff" fill-opacity="0.52"/><circle cx="287" cy="295" r="2" fill="#fff" fill-opacity="0.64"/><circle cx="395" cy="296" r="4" fill="#fff" fill-opacity="0.54"/><circle cx="382" cy="322" r="3" fill="#fff" fill-opacity="0.45"/><circle cx="616" cy="211" r="2" fill="#fff" fill-opacity="0.62"/><circle cx="407" cy="363" r="4" fill="#fff" fill-opacity="0.68"/><circle cx="438" cy="139" r="4" fill="#fff" fill-opacity="0.59"/><circle cx="365" cy="420" r="3" fill="#fff" fill-opacity="0.79"/><circle cx="305" cy="330" r="2" fill="#fff" fill-opacity="0.62"/><circle cx="408" cy="373" r="3" fill="#fff" fill-opacity="0.36"/><circle cx="552" cy="306" r="2" fill="#fff" fill-opacity="0.29"/><circle cx="503" cy="172" r="3" fill="#fff" fill-opacity="0.61"/><circle cx="322" cy="375" r="2" fill="#fff" fill-opacity="0.58"/><circle cx="391" cy="199" r="2" fill="#fff" fill-opacity="0.69"/><circle cx="635" cy="248" r="2" fill="#fff" fill-opacity="0.35"/><circle cx="607" cy="424" r="2" fill="#fff" fill-opacity="0.67"/><circle cx="474" cy="249" r="2" fill="#fff" fill-opacity="0.59"/><circle cx="461" cy="405" r="4" fill="#fff" fill-opacity="0.73"/><circle cx="254" cy="340" r="2" fill="#fff" fill-opacity="0.42"/><circle cx="292" cy="385" r="4" fill="#fff" fill-opacity="0.74"/><circle cx="333" cy="331" r="3" fill="#fff" fill-opacity="0.41"/><circle cx="221" cy="348" r="3" fill="#fff" fill-opacity="0.47"/><circle cx="300" cy="200" r="9" fill="#FD3A25"/><circle cx="300" cy="200" r="22" fill="none" stroke="#FD3A25" stroke-opacity=".5" stroke-width="3"/></svg>